<svg enable-background="new 0 0 557.71 556.84" viewBox="0 0 557.71 556.84" xmlns="http://www.w3.org/2000/svg"><path d="m525.1 556.84h-492.49c-18.01 0-32.61-14.6-32.61-32.61v-491.62c0-18.01 14.6-32.61 32.61-32.61h492.49c18.01 0 32.61 14.6 32.61 32.61v491.62c0 18.01-14.6 32.61-32.61 32.61z" fill="#a07746"/><path d="m513.22 528.81h-468.99c-9.12 0-16.54-7.42-16.54-16.54v-467.74c0-9.12 7.42-16.54 16.54-16.54h468.99c9.12 0 16.54 7.42 16.54 16.54v467.74c0 9.12-7.42 16.54-16.54 16.54zm-468.99-494.32c-5.53 0-10.03 4.5-10.03 10.03v467.74c0 5.53 4.5 10.03 10.03 10.03h468.99c5.53 0 10.03-4.5 10.03-10.03v-467.73c0-5.53-4.5-10.03-10.03-10.03h-468.99z" fill="#fff"/><path d="m444.77 400.85c.01-.19.03-.37.03-.56v-10.89c0-.95-.11-1.88-.31-2.78h8.33v-61.2c0-9.08-7.38-16.46-16.46-16.46h-187.88c-9.08 0-16.46 7.38-16.46 16.46v61.2h7.86c-.2.9-.31 1.82-.31 2.78v10.89c0 .12.01.24.02.36-5.81 1.3-10.17 6.49-10.17 12.68v14.88c0 4.88 2.7 9.13 6.69 11.36v20.15c0 8.97 7.29 16.26 16.26 16.26h180.09c8.97 0 16.26-7.3 16.26-16.26v-20.95c3.29-2.36 5.44-6.21 5.44-10.56v-14.88c.01-5.91-3.97-10.91-9.39-12.48z" fill="#fff"/><path d="m247.86 442.38v17.34c0 2.5 2.03 4.53 4.53 4.53h180.09c2.5 0 4.53-2.03 4.53-4.53v-17.34z" fill="#e98b24"/><path d="m241.17 413.34v14.88c0 .7.57 1.26 1.26 1.26h198.74c.7 0 1.26-.57 1.26-1.26v-14.88c0-.7-.57-1.26-1.26-1.26h-198.74c-.7-.01-1.26.56-1.26 1.26z" fill="#432918"/><path d="m251.32 389.41v10.89c0 .7.57 1.26 1.26 1.26h179.22c.7 0 1.26-.57 1.26-1.26v-10.89c0-.7-.57-1.26-1.26-1.26h-179.22c-.7-.01-1.26.56-1.26 1.26z" fill="#be1622"/><path d="m441.09 374.89v-49.46c0-2.61-2.11-4.72-4.72-4.72h-187.89c-2.61 0-4.72 2.11-4.72 4.72v49.46z" fill="#e98b24"/><path d="m327.46 263.73c-12.02-20.03-51.24-87.68-51.24-117.15 0-36.52 29.71-66.23 66.23-66.23s66.23 29.71 66.23 66.23c0 29.47-39.22 97.12-51.24 117.15l-14.99 24.99z" fill="#fff"/><path d="m342.45 97.84c-26.92 0-48.74 21.82-48.74 48.74s48.74 108.15 48.74 108.15 48.74-81.23 48.74-108.15-21.82-48.74-48.74-48.74z" fill="#e30613"/><g fill="#fff"><ellipse cx="342.45" cy="146.58" rx="17.55" ry="17.55" transform="matrix(.2298 -.9732 .9732 .2298 121.1077 446.1902)"/><path d="m108.56 123.36c0-12.58 4.39-23.26 13.16-32.04 8.77-8.77 19.35-13.15 31.73-13.15 12.59 0 23.26 4.39 32.04 13.15 8.77 8.77 13.16 19.46 13.16 32.04v220.81h-32.82v-220.81c0-3.5-1.24-6.45-3.71-8.82-2.48-2.37-5.37-3.56-8.67-3.56s-6.14 1.24-8.51 3.72c-2.38 2.47-3.56 5.37-3.56 8.66v310.07c0 3.3 1.18 6.19 3.56 8.66 2.37 2.48 5.21 3.72 8.51 3.72s6.19-1.24 8.67-3.72c2.47-2.47 3.71-5.36 3.71-8.66v-56.67h32.82v56.67c0 12.59-4.39 23.27-13.16 32.04s-19.45 13.15-32.04 13.15c-12.38 0-22.96-4.38-31.73-13.15s-13.16-19.45-13.16-32.04z"/></g></svg>