<svg enable-background="new 0 0 313.2 551.35" viewBox="0 0 313.2 551.35" xmlns="http://www.w3.org/2000/svg"><g fill="#fff"><path d="m300.1 446.65c.01-.26.04-.51.04-.77v-15.18c0-1.33-.15-2.62-.43-3.87h11.61v-85.29c0-12.65-10.29-22.94-22.94-22.94h-261.83c-12.65 0-22.94 10.29-22.94 22.94v85.29h10.95c-.27 1.25-.43 2.54-.43 3.87v15.18c0 .17.02.33.03.5-8.09 1.8-14.16 9.03-14.16 17.66v20.74c0 6.8 3.77 12.73 9.32 15.83v28.08c0 12.5 10.17 22.67 22.66 22.67h250.97c12.5 0 22.67-10.17 22.67-22.67v-29.19c4.58-3.29 7.58-8.65 7.58-14.71v-20.74c0-8.25-5.55-15.22-13.1-17.4zm-280.13-105.12c0-3.63 2.95-6.58 6.58-6.58h261.83c3.63 0 6.58 2.95 6.58 6.58v68.93h-274.99zm263.81 89.17v15.18c0 .97-.79 1.76-1.76 1.76h-249.76c-.97 0-1.76-.79-1.76-1.76v-15.18c0-.97.79-1.76 1.76-1.76h249.76c.98-.01 1.76.78 1.76 1.76zm5.48 97.99c0 3.48-2.82 6.31-6.31 6.31h-250.97c-3.48 0-6.31-2.82-6.31-6.31v-24.17h263.58v24.17zm7.58-43.91c0 .97-.79 1.76-1.76 1.76h-276.96c-.97 0-1.76-.79-1.76-1.76v-20.74c0-.97.79-1.76 1.76-1.76h276.96c.97 0 1.76.79 1.76 1.76z"/><path d="m157.5 290.37 20.89-34.82c16.75-27.91 71.41-122.18 71.41-163.26 0-50.89-41.41-92.3-92.3-92.3s-92.3 41.42-92.3 92.31c0 41.07 54.65 135.34 71.41 163.26zm0-266c37.52 0 67.93 30.41 67.93 67.93s-67.93 150.72-67.93 150.72-67.93-113.21-67.93-150.72c0-37.52 30.41-67.93 67.93-67.93z"/><path d="m181.96 92.3c0-13.51-10.95-24.46-24.46-24.46s-24.46 10.95-24.46 24.46 10.95 24.46 24.46 24.46c13.51-.01 24.46-10.96 24.46-24.46z"/></g></svg>