<svg enable-background="new 0 0 608.06 289.82" viewBox="0 0 608.06 289.82" xmlns="http://www.w3.org/2000/svg"><path d="m591.09 289.82h-574.12c-9.37 0-16.97-7.6-16.97-16.97v-255.88c0-9.37 7.6-16.97 16.97-16.97h574.12c9.37 0 16.97 7.6 16.97 16.97v255.88c0 9.37-7.6 16.97-16.97 16.97z" fill="#a07746"/><path d="m584.91 275.23h-561.89c-4.75 0-8.61-3.86-8.61-8.61v-243.45c0-4.75 3.86-8.61 8.61-8.61h561.89c4.75 0 8.61 3.86 8.61 8.61v243.45c0 4.75-3.86 8.61-8.61 8.61zm-561.89-257.28c-2.88 0-5.22 2.34-5.22 5.22v243.45c0 2.88 2.34 5.22 5.22 5.22h561.89c2.88 0 5.22-2.34 5.22-5.22v-243.45c0-2.88-2.34-5.22-5.22-5.22z" fill="#fff"/></svg>