<svg enable-background="new 0 0 1412.04 499.48" viewBox="0 0 1412.04 499.48" xmlns="http://www.w3.org/2000/svg" xmlns:xlink="http://www.w3.org/1999/xlink"><clipPath id="a"><path d="m470.65 499.11h-441.42c-16.14 0-29.23-13.09-29.23-29.23v-440.65c0-16.14 13.09-29.23 29.23-29.23h441.42c16.14 0 29.23 13.09 29.23 29.23v440.65c0 16.14-13.09 29.23-29.23 29.23z"/></clipPath><path d="m470.65 499.11h-441.42c-16.14 0-29.23-13.09-29.23-29.23v-440.65c0-16.14 13.09-29.23 29.23-29.23h441.42c16.14 0 29.23 13.09 29.23 29.23v440.65c0 16.14-13.09 29.23-29.23 29.23z" fill="#a07746"/><g fill="#e98b24"><path d="m595.82 110.98c0-11.28 3.93-20.85 11.8-28.71 7.86-7.86 17.34-11.79 28.44-11.79 11.28 0 20.85 3.93 28.71 11.79s11.8 17.44 11.8 28.71v197.91h-29.41v-197.91c0-3.14-1.11-5.78-3.33-7.91-2.22-2.12-4.81-3.19-7.77-3.19s-5.51 1.11-7.63 3.33c-2.13 2.22-3.19 4.81-3.19 7.77v277.92c0 2.96 1.06 5.55 3.19 7.77 2.12 2.22 4.67 3.33 7.63 3.33s5.55-1.11 7.77-3.33 3.33-4.81 3.33-7.77v-50.8h29.41v50.79c0 11.28-3.93 20.86-11.8 28.71-7.86 7.86-17.43 11.79-28.71 11.79-11.1 0-20.58-3.93-28.44-11.79s-11.8-17.43-11.8-28.71z"/><path d="m723.73 70.41h40.51c11.1 0 20.58 3.93 28.44 11.79s11.79 17.44 11.79 28.71v245.57c0 9.8-3.15 18.4-9.43 25.8 6.29 7.21 9.43 15.73 9.43 25.53v21.34h-29.41v-21.34c0-2.95-1.02-5.5-3.05-7.63-2.04-2.12-4.63-3.19-7.77-3.19h-11.1v32.16h-29.41zm29.41 297.18h11.1c2.96 0 5.51-1.07 7.63-3.2 2.13-2.12 3.2-4.76 3.2-7.9v-245.57c0-3.14-1.07-5.78-3.2-7.91-2.12-2.12-4.67-3.19-7.63-3.19h-11.1z"/><path d="m881.05 429.16h-29.41c1.85-36.99 9.07-156.57 21.64-358.75h39.95c.18 1.48 1.43 22.01 3.75 61.59 2.31 39.59 5.27 89.16 8.88 148.72 3.6 59.56 6.61 109.04 9.02 148.44h-29.41l-1.94-32.46h-20.81zm12.2-222.8-8.04 160.93h16.09z"/><path d="m984.26 429.16c-.19-1.85-1.44-22.1-3.75-60.76-2.32-38.66-5.32-88.74-9.02-150.24s-6.66-110.75-8.88-147.74h29.41l12.21 222.8c7.77-144.46 11.75-218.73 11.93-222.8h29.69c-1.3 28.49-3.75 71.63-7.36 129.43-3.6 57.81-6.84 109.78-9.71 155.93s-4.4 70.61-4.58 73.39h-39.94z"/><path d="m1093.02 70.41h67.3v29.41h-37.88v209h37.73v29.41h-37.73v61.52h37.54v29.41h-66.95v-358.75z"/><path d="m1254.44 70.41h29.41v358.75h-29.41z"/><path d="m1331.02 429.16v-358.75h29.41l22.19 204.21v-204.21h29.41v358.75h-29.41l-22.19-198.1v198.1z"/></g><path d="m1189.01 241.37c-6.2-10.34-26.44-45.24-26.44-60.45 0-18.84 15.33-34.18 34.18-34.18 18.84 0 34.18 15.33 34.18 34.18 0 15.21-20.24 50.12-26.44 60.45l-7.74 12.89z" fill="#fff"/><path d="m1196.74 155.76c-13.89 0-25.15 11.26-25.15 25.15s25.15 55.81 25.15 55.81 25.15-41.92 25.15-55.81-11.26-25.15-25.15-25.15z" fill="#e30613"/><ellipse cx="1196.74" cy="180.91" fill="#fff" rx="9.06" ry="9.06" transform="matrix(.2298 -.9732 .9732 .2298 745.7142 1304.0763)"/><g clip-path="url(#a)" opacity=".2"><path d="m632.26 315.68c.02-.45.07-.9.07-1.36v-26.64c0-2.33-.27-4.6-.75-6.8h20.38v-149.73c0-22.2-18.06-40.27-40.27-40.27h-459.64c-22.2 0-40.26 18.06-40.26 40.27v149.73h19.23c-.48 2.19-.75 4.46-.75 6.8v26.64c0 .29.04.58.04.87-14.21 3.18-24.87 15.87-24.87 31.02v36.41c0 11.94 6.62 22.34 16.36 27.78v49.29c0 21.94 17.85 39.79 39.78 39.79h440.57c21.94 0 39.79-17.85 39.79-39.79v-51.25c8.04-5.78 13.31-15.19 13.31-25.82v-36.41c0-14.47-9.73-26.7-22.99-30.53z" fill="#fff"/><path d="m150.51 417.26v42.43c0 6.12 4.96 11.07 11.07 11.07h440.57c6.12 0 11.07-4.96 11.07-11.07v-42.43z" fill="#e98b24"/><path d="m134.15 346.21v36.41c0 1.71 1.39 3.09 3.09 3.09h486.2c1.71 0 3.09-1.39 3.09-3.09v-36.41c0-1.71-1.39-3.09-3.09-3.09h-486.2c-1.7 0-3.09 1.38-3.09 3.09z" fill="#432918"/><path d="m158.98 287.67v26.65c0 1.71 1.39 3.09 3.09 3.09h438.45c1.71 0 3.09-1.39 3.09-3.09v-26.65c0-1.71-1.39-3.09-3.09-3.09h-438.45c-1.7 0-3.09 1.38-3.09 3.09z" fill="#be1622"/><path d="m623.25 252.16v-121.01c0-6.38-5.17-11.55-11.55-11.55h-459.65c-6.38 0-11.55 5.17-11.55 11.55v121.01z" fill="#e98b24"/></g><path d="m460 473.98h-420.36c-8.17 0-14.82-6.65-14.82-14.82v-419.25c0-8.18 6.65-14.83 14.82-14.83h420.36c8.18 0 14.83 6.65 14.83 14.83v419.24c0 8.18-6.65 14.83-14.83 14.83zm-420.36-443.06c-4.96 0-8.99 4.03-8.99 8.99v419.24c0 4.96 4.03 8.99 8.99 8.99h420.36c4.96 0 8.99-4.03 8.99-8.99v-419.24c0-4.96-4.03-8.99-8.99-8.99z" fill="#fff"/><path d="m393.38 260.56c.01-.26.04-.52.04-.78v-15.29c0-1.34-.15-2.64-.43-3.9h11.69v-85.93c0-12.74-10.37-23.11-23.11-23.11h-263.8c-12.74 0-23.11 10.37-23.11 23.11v85.93h11.04c-.28 1.26-.43 2.56-.43 3.9v15.29c0 .17.02.33.03.5-8.16 1.82-14.28 9.11-14.28 17.81v20.9c0 6.85 3.8 12.82 9.39 15.95v28.29c0 12.59 10.24 22.84 22.83 22.84h252.86c12.59 0 22.84-10.25 22.84-22.84v-29.41c4.62-3.32 7.64-8.72 7.64-14.82v-20.9c0-8.32-5.59-15.34-13.2-17.54z" fill="#fff"/><path d="m116.9 318.86v24.35c0 3.51 2.85 6.36 6.36 6.36h252.85c3.51 0 6.36-2.85 6.36-6.36v-24.35z" fill="#e98b24"/><path d="m107.51 278.09v20.9c0 .98.79 1.78 1.78 1.78h279.04c.98 0 1.78-.79 1.78-1.78v-20.9c0-.98-.79-1.78-1.78-1.78h-279.05c-.98 0-1.77.8-1.77 1.78z" fill="#432918"/><path d="m121.76 244.49v15.29c0 .98.79 1.78 1.78 1.78h251.64c.98 0 1.78-.79 1.78-1.78v-15.29c0-.98-.79-1.78-1.78-1.78h-251.65c-.98.01-1.77.8-1.77 1.78z" fill="#be1622"/><path d="m388.21 224.11v-69.45c0-3.66-2.97-6.63-6.63-6.63h-263.8c-3.66 0-6.63 2.97-6.63 6.63v69.45z" fill="#e98b24"/></svg>