<svg enable-background="new 0 0 313.2 551.35" viewBox="0 0 313.2 551.35" xmlns="http://www.w3.org/2000/svg" xmlns:xlink="http://www.w3.org/1999/xlink"><clipPath id="a"><path d="m-127.58 556.84h-492.49c-18.01 0-32.61-14.6-32.61-32.61v-491.62c0-18.01 14.6-32.61 32.61-32.61h492.49c18.01 0 32.61 14.6 32.61 32.61v491.62c0 18.01-14.6 32.61-32.61 32.61z"/></clipPath><path d="m300.1 446.65c.01-.26.04-.51.04-.77v-15.18c0-1.33-.15-2.62-.43-3.87h11.61v-85.29c0-12.65-10.29-22.94-22.94-22.94h-261.83c-12.65 0-22.94 10.29-22.94 22.94v85.29h10.95c-.27 1.25-.43 2.54-.43 3.87v15.18c0 .17.02.33.03.5-8.09 1.8-14.16 9.03-14.16 17.66v20.74c0 6.8 3.77 12.73 9.32 15.83v28.08c0 12.5 10.17 22.67 22.66 22.67h250.97c12.5 0 22.67-10.17 22.67-22.67v-29.19c4.58-3.29 7.58-8.65 7.58-14.71v-20.74c0-8.25-5.55-15.22-13.1-17.4z" fill="#fff"/><path d="m25.68 504.51v24.17c0 3.48 2.82 6.31 6.31 6.31h250.97c3.48 0 6.31-2.82 6.31-6.31v-24.17z" fill="#e98b24"/><path d="m16.36 464.04v20.74c0 .97.79 1.76 1.76 1.76h276.96c.97 0 1.76-.79 1.76-1.76v-20.74c0-.97-.79-1.76-1.76-1.76h-276.96c-.98 0-1.76.79-1.76 1.76z" fill="#432918"/><path d="m30.5 430.7v15.18c0 .97.79 1.76 1.76 1.76h249.76c.97 0 1.76-.79 1.76-1.76v-15.18c0-.97-.79-1.76-1.76-1.76h-249.76c-.97-.01-1.76.78-1.76 1.76z" fill="#be1622"/><path d="m294.96 410.47v-68.93c0-3.63-2.95-6.58-6.58-6.58h-261.83c-3.63 0-6.58 2.95-6.58 6.58v68.93z" fill="#e98b24"/><path d="m136.61 255.55c-16.76-27.91-71.41-122.18-71.41-163.25 0-50.89 41.41-92.3 92.3-92.3s92.3 41.41 92.3 92.3c0 41.07-54.65 135.34-71.41 163.26l-20.89 34.82z" fill="#fff"/><path d="m157.5 24.37c-37.52 0-67.93 30.41-67.93 67.93s67.93 150.72 67.93 150.72 67.93-113.2 67.93-150.72-30.42-67.93-67.93-67.93z" fill="#e30613"/><ellipse cx="157.5" cy="92.3" fill="#fff" rx="24.46" ry="24.46" transform="matrix(.2298 -.9732 .9732 .2298 31.4857 224.3754)"/><g clip-path="url(#a)" opacity=".2"><path d="m17.48 366.05c.02-.52.08-1.03.08-1.56v-30.49c0-2.67-.31-5.27-.86-7.78h23.32v-171.37c0-25.41-20.68-46.09-46.09-46.09h-526.09c-25.41 0-46.09 20.68-46.09 46.09v171.37h22.01c-.55 2.51-.86 5.11-.86 7.78v30.49c0 .34.04.66.05 1-16.27 3.63-28.47 18.16-28.47 35.51v41.67c0 13.66 7.57 25.57 18.73 31.8v56.41c0 25.11 20.43 45.54 45.54 45.54h504.26c25.11 0 45.54-20.43 45.54-45.54v-58.65c9.2-6.61 15.23-17.38 15.23-29.56v-41.67c.01-16.57-11.13-30.56-26.3-34.95z" fill="#fff"/><path d="m-552.64 401v41.68c0 1.96 1.59 3.54 3.54 3.54h556.49c1.96 0 3.54-1.59 3.54-3.54v-41.68c0-1.96-1.59-3.54-3.54-3.54h-556.49c-1.96 0-3.54 1.59-3.54 3.54z" fill="#432918"/><path d="m7.16 293.36v-138.51c0-7.3-5.92-13.22-13.22-13.22h-526.09c-7.3 0-13.22 5.92-13.22 13.22v138.51z" fill="#e98b24"/></g></svg>