<svg enable-background="new 0 0 557.71 556.84" viewBox="0 0 557.71 556.84" xmlns="http://www.w3.org/2000/svg" xmlns:xlink="http://www.w3.org/1999/xlink"><clipPath id="a"><path d="m525.1 556.84h-492.49c-18.01 0-32.61-14.6-32.61-32.61v-491.62c0-18.01 14.6-32.61 32.61-32.61h492.49c18.01 0 32.61 14.6 32.61 32.61v491.62c0 18.01-14.6 32.61-32.61 32.61z"/></clipPath><path d="m525.1 556.84h-492.49c-18.01 0-32.61-14.6-32.61-32.61v-491.62c0-18.01 14.6-32.61 32.61-32.61h492.49c18.01 0 32.61 14.6 32.61 32.61v491.62c0 18.01-14.6 32.61-32.61 32.61z" fill="#a07746"/><g clip-path="url(#a)" opacity=".2"><path d="m670.15 366.05c.02-.52.08-1.03.08-1.56v-30.49c0-2.67-.31-5.27-.86-7.78h23.32v-171.37c0-25.41-20.68-46.09-46.09-46.09h-526.08c-25.41 0-46.09 20.68-46.09 46.09v171.37h22.01c-.55 2.51-.86 5.11-.86 7.78v30.49c0 .34.04.66.05 1-16.27 3.63-28.47 18.16-28.47 35.51v41.67c0 13.66 7.57 25.57 18.73 31.8v56.41c0 25.11 20.43 45.54 45.54 45.54h504.26c25.11 0 45.54-20.43 45.54-45.54v-58.65c9.2-6.61 15.23-17.38 15.23-29.56v-41.67c.01-16.57-11.13-30.56-26.31-34.95z" fill="#fff"/><path d="m118.76 482.32v48.57c0 7 5.67 12.67 12.67 12.67h504.27c7 0 12.67-5.67 12.67-12.67v-48.57z" fill="#e98b24"/><path d="m100.03 401v41.68c0 1.96 1.59 3.54 3.54 3.54h556.49c1.96 0 3.54-1.59 3.54-3.54v-41.68c0-1.96-1.59-3.54-3.54-3.54h-556.49c-1.95 0-3.54 1.59-3.54 3.54z" fill="#432918"/><path d="m128.45 334v30.5c0 1.96 1.59 3.54 3.54 3.54h501.84c1.96 0 3.54-1.59 3.54-3.54v-30.5c0-1.96-1.59-3.54-3.54-3.54h-501.84c-1.96 0-3.54 1.58-3.54 3.54z" fill="#be1622"/><path d="m659.83 293.36v-138.51c0-7.3-5.92-13.22-13.22-13.22h-526.09c-7.3 0-13.22 5.92-13.22 13.22v138.51z" fill="#e98b24"/></g><path d="m513.22 528.81h-468.99c-9.12 0-16.54-7.42-16.54-16.54v-467.74c0-9.12 7.42-16.54 16.54-16.54h468.99c9.12 0 16.54 7.42 16.54 16.54v467.74c0 9.12-7.42 16.54-16.54 16.54zm-468.99-494.32c-5.53 0-10.03 4.5-10.03 10.03v467.74c0 5.53 4.5 10.03 10.03 10.03h468.99c5.53 0 10.03-4.5 10.03-10.03v-467.73c0-5.53-4.5-10.03-10.03-10.03h-468.99z" fill="#fff"/><path d="m455.31 291.41c.01-.32.05-.63.05-.94v-18.51c0-1.62-.19-3.2-.52-4.72h14.15v-104.01c0-15.42-12.55-27.97-27.97-27.97h-319.3c-15.42 0-27.97 12.55-27.97 27.97v104.01h13.36c-.33 1.52-.52 3.1-.52 4.72v18.51c0 .2.03.4.03.61-9.87 2.21-17.28 11.02-17.28 21.55v25.29c0 8.29 4.6 15.52 11.37 19.3v34.24c0 15.24 12.4 27.64 27.64 27.64h306.05c15.24 0 27.64-12.4 27.64-27.64v-35.6c5.59-4.01 9.24-10.55 9.24-17.94v-25.29c0-10.06-6.76-18.56-15.97-21.22z" fill="#fff"/><path d="m120.65 361.98v29.48c0 4.25 3.44 7.69 7.69 7.69h306.05c4.25 0 7.69-3.44 7.69-7.69v-29.48z" fill="#e98b24"/><path d="m109.28 312.62v25.29c0 1.19.96 2.15 2.15 2.15h337.75c1.19 0 2.15-.96 2.15-2.15v-25.29c0-1.19-.96-2.15-2.15-2.15h-337.75c-1.18 0-2.15.97-2.15 2.15z" fill="#432918"/><path d="m126.53 271.96v18.51c0 1.19.96 2.15 2.15 2.15h304.58c1.19 0 2.15-.96 2.15-2.15v-18.51c0-1.19-.96-2.15-2.15-2.15h-304.58c-1.19 0-2.15.96-2.15 2.15z" fill="#be1622"/><path d="m449.04 247.29v-84.06c0-4.43-3.59-8.03-8.03-8.03h-319.3c-4.43 0-8.03 3.59-8.03 8.03v84.06z" fill="#e98b24"/></svg>