<svg enable-background="new 0 0 611.46 454.41" viewBox="0 0 611.46 454.41" xmlns="http://www.w3.org/2000/svg"><path d="m585.89 250c.02-.51.08-1 .08-1.51v-29.63c0-2.6-.3-5.12-.83-7.56h22.66v-166.52c0-24.69-20.09-44.78-44.79-44.78h-511.17c-24.69 0-44.78 20.09-44.78 44.78v166.52h21.39c-.53 2.44-.83 4.96-.83 7.56v29.63c0 .33.04.65.05.97-15.81 3.53-27.67 17.64-27.67 34.5v40.49c0 13.27 7.36 24.85 18.2 30.9v54.81c0 24.4 19.85 44.25 44.24 44.25h489.96c24.4 0 44.25-19.85 44.25-44.25v-56.99c8.94-6.43 14.8-16.89 14.8-28.72v-40.49c.01-16.1-10.81-29.7-25.56-33.96z" fill="#fff"/><path d="m50.13 362.97v47.19c0 6.8 5.51 12.32 12.32 12.32h489.97c6.8 0 12.32-5.51 12.32-12.32v-47.19z" fill="#e98b24"/><path d="m31.93 283.96v40.49c0 1.9 1.54 3.44 3.44 3.44h540.71c1.9 0 3.44-1.54 3.44-3.44v-40.49c0-1.9-1.54-3.44-3.44-3.44h-540.71c-1.9 0-3.44 1.54-3.44 3.44z" fill="#432918"/><path d="m59.54 218.85v29.63c0 1.9 1.54 3.44 3.44 3.44h487.62c1.9 0 3.44-1.54 3.44-3.44v-29.63c0-1.9-1.54-3.44-3.44-3.44h-487.62c-1.9 0-3.44 1.54-3.44 3.44z" fill="#be1622"/><path d="m575.86 179.36v-134.58c0-7.1-5.75-12.85-12.85-12.85h-511.17c-7.1 0-12.85 5.75-12.85 12.85v134.58z" fill="#e98b24"/></svg>