<svg enable-background="new 0 0 1024.59 488.35" viewBox="0 0 1024.59 488.35" xmlns="http://www.w3.org/2000/svg"><path d="m995.99 488.35h-967.39c-15.79 0-28.6-12.8-28.6-28.6v-431.15c0-15.8 12.8-28.6 28.6-28.6h967.39c15.79 0 28.6 12.8 28.6 28.6v431.16c0 15.79-12.81 28.59-28.6 28.59z" fill="#a07746"/><g fill="#fff"><path d="m985.57 463.77h-946.78c-8 0-14.5-6.51-14.5-14.5v-410.22c0-8 6.51-14.51 14.5-14.51h946.78c8 0 14.51 6.51 14.51 14.51v410.21c0 8-6.51 14.51-14.51 14.51zm-946.78-433.52c-4.85 0-8.79 3.95-8.79 8.8v410.21c0 4.85 3.94 8.79 8.79 8.79h946.78c4.85 0 8.8-3.94 8.8-8.79v-410.21c0-4.85-3.95-8.8-8.8-8.8z"/><path d="m82.41 118.86c0-10.15 3.54-18.77 10.62-25.86 7.08-7.08 15.61-10.62 25.6-10.62 10.16 0 18.77 3.54 25.86 10.62 7.08 7.08 10.62 15.7 10.62 25.86v178.21h-26.49v-178.21c0-2.83-1-5.2-2.99-7.12-2-1.91-4.33-2.87-7-2.87s-4.96 1-6.87 3c-1.92 2-2.87 4.33-2.87 6.99v250.25c0 2.67.95 5 2.87 6.99 1.91 2 4.2 3 6.87 3s5-1 7-3 2.99-4.33 2.99-6.99v-45.74h26.49v45.74c0 10.16-3.54 18.78-10.62 25.86s-15.7 10.62-25.86 10.62c-9.99 0-18.53-3.54-25.6-10.62-7.08-7.08-10.62-15.7-10.62-25.86z"/><path d="m197.58 82.33h36.47c10 0 18.53 3.54 25.61 10.62s10.62 15.7 10.62 25.86v221.12c0 8.83-2.83 16.57-8.49 23.23 5.66 6.5 8.49 14.16 8.49 22.98v19.22h-26.48v-19.22c0-2.66-.92-4.95-2.75-6.87-1.83-1.91-4.17-2.87-7-2.87h-9.99v28.96h-26.48zm26.48 267.59h9.99c2.67 0 4.96-.96 6.87-2.88 1.92-1.91 2.88-4.28 2.88-7.11v-221.13c0-2.83-.96-5.2-2.88-7.12-1.91-1.91-4.2-2.87-6.87-2.87h-9.99z"/><path d="m339.23 405.36h-26.49c1.67-33.31 8.16-140.98 19.49-323.03h35.98c.16 1.33 1.29 19.82 3.37 55.46 2.08 35.65 4.75 80.28 8 133.91s5.95 98.18 8.12 133.66h-26.49l-1.75-29.23h-18.74zm10.99-200.61-7.24 144.9h14.49z"/><path d="m432.17 405.36c-.17-1.66-1.29-19.9-3.37-54.71-2.09-34.81-4.79-79.9-8.12-135.28-3.33-55.37-5.99-99.72-8-133.03h26.49l10.99 200.61c7-130.08 10.58-196.95 10.74-200.61h26.73c-1.17 25.65-3.37 64.5-6.62 116.54-3.25 52.05-6.16 98.85-8.74 140.4-2.58 41.56-3.96 63.58-4.12 66.08z"/><path d="m530.1 82.33h60.6v26.48h-34.11v188.19h33.97v26.48h-33.97v55.4h33.8v26.48h-60.29z"/><path d="m767.57 324.36c.01-.13.02-.26.02-.39v-7.73c0-.68-.08-1.34-.22-1.97h5.91v-43.44c0-6.44-5.24-11.68-11.68-11.68h-133.36c-6.44 0-11.68 5.24-11.68 11.68v43.44h5.58c-.14.64-.22 1.29-.22 1.97v7.73c0 .09.01.17.01.25-4.12.92-7.22 4.6-7.22 9v10.56c0 3.46 1.92 6.48 4.75 8.06v14.3c0 6.36 5.18 11.54 11.54 11.54h127.83c6.36 0 11.54-5.18 11.54-11.54v-14.87c2.33-1.68 3.86-4.41 3.86-7.49v-10.56c.01-4.2-2.81-7.74-6.66-8.86z"/></g><path d="m627.8 353.84v12.31c0 1.77 1.44 3.21 3.21 3.21h127.83c1.77 0 3.21-1.44 3.21-3.21v-12.31z" fill="#e98b24"/><path d="m623.05 333.22v10.56c0 .5.4.9.9.9h141.06c.5 0 .9-.4.9-.9v-10.56c0-.5-.4-.9-.9-.9h-141.06c-.5 0-.9.41-.9.9z" fill="#432918"/><path d="m630.25 316.24v7.73c0 .5.4.9.9.9h127.21c.5 0 .9-.4.9-.9v-7.73c0-.5-.4-.9-.9-.9h-127.21c-.5 0-.9.4-.9.9z" fill="#be1622"/><path d="m764.95 305.94v-35.11c0-1.85-1.5-3.35-3.35-3.35h-133.36c-1.85 0-3.35 1.5-3.35 3.35v35.11z" fill="#e98b24"/><path d="m684.3 227.03c-8.53-14.22-36.37-62.23-36.37-83.15 0-25.92 21.09-47.01 47.01-47.01s47.01 21.09 47.01 47.01c0 20.92-27.84 68.93-36.37 83.15l-10.64 17.73z" fill="#fff"/><path d="m694.94 109.28c-19.11 0-34.6 15.49-34.6 34.6s34.6 76.77 34.6 76.77 34.6-57.66 34.6-76.77-15.49-34.6-34.6-34.6z" fill="#e30613"/><ellipse cx="694.94" cy="143.88" fill="#fff" rx="12.46" ry="12.46" transform="matrix(.2298 -.9732 .9732 .2298 395.2435 787.1699)"/><path d="m800.33 82.33h26.49v323.03h-26.49z" fill="#fff"/><path d="m869.28 405.36v-323.03h26.49l19.98 183.87v-183.87h26.48v323.03h-26.48l-19.98-178.38v178.38z" fill="#fff"/></svg>