<svg enable-background="new 0 0 557.71 556.84" viewBox="0 0 557.71 556.84" xmlns="http://www.w3.org/2000/svg"><path d="m525.1 556.84h-492.49c-18.01 0-32.61-14.6-32.61-32.61v-491.62c0-18.01 14.6-32.61 32.61-32.61h492.49c18.01 0 32.61 14.6 32.61 32.61v491.62c0 18.01-14.6 32.61-32.61 32.61z" fill="#a07746"/><path d="m513.22 528.81h-468.99c-9.12 0-16.54-7.42-16.54-16.54v-467.74c0-9.12 7.42-16.54 16.54-16.54h468.99c9.12 0 16.54 7.42 16.54 16.54v467.74c0 9.12-7.42 16.54-16.54 16.54zm-468.99-494.32c-5.53 0-10.03 4.5-10.03 10.03v467.74c0 5.53 4.5 10.03 10.03 10.03h468.99c5.53 0 10.03-4.5 10.03-10.03v-467.73c0-5.53-4.5-10.03-10.03-10.03h-468.99z" fill="#fff"/><path d="m388.95 405.09c.01-.2.03-.39.03-.59v-11.49c0-1.01-.12-1.99-.32-2.93h8.79v-64.57c0-9.58-7.79-17.37-17.37-17.37h-198.23c-9.58 0-17.37 7.79-17.37 17.37v64.57h8.29c-.21.95-.32 1.92-.32 2.93v11.49c0 .13.02.25.02.38-6.13 1.37-10.73 6.84-10.73 13.38v15.7c0 5.15 2.85 9.64 7.06 11.98v21.26c0 9.46 7.7 17.16 17.16 17.16h190.01c9.46 0 17.16-7.7 17.16-17.16v-22.1c3.47-2.49 5.74-6.55 5.74-11.14v-15.7c0-6.24-4.2-11.51-9.92-13.17z" fill="#fff"/><path d="m181.18 448.91v18.3c0 2.64 2.14 4.78 4.78 4.78h190.01c2.64 0 4.78-2.14 4.78-4.78v-18.3z" fill="#e98b24"/><path d="m174.13 418.26v15.7c0 .74.6 1.33 1.33 1.33h209.69c.74 0 1.33-.6 1.33-1.33v-15.7c0-.74-.6-1.33-1.33-1.33h-209.69c-.73 0-1.33.6-1.33 1.33z" fill="#432918"/><path d="m184.84 393.02v11.49c0 .74.6 1.33 1.33 1.33h189.1c.74 0 1.33-.6 1.33-1.33v-11.49c0-.74-.6-1.33-1.33-1.33h-189.1c-.74-.01-1.33.59-1.33 1.33z" fill="#be1622"/><path d="m385.07 377.7v-52.19c0-2.75-2.23-4.98-4.98-4.98h-198.24c-2.75 0-4.98 2.23-4.98 4.98v52.19z" fill="#e98b24"/><path d="m265.17 260.41c-12.68-21.13-54.06-92.51-54.06-123.6 0-38.53 31.35-69.88 69.88-69.88s69.88 31.35 69.88 69.88c0 31.1-41.38 102.47-54.06 123.6l-15.82 26.36z" fill="#fff"/><path d="m280.99 85.38c-28.4 0-51.43 23.03-51.43 51.43s51.43 114.11 51.43 114.11 51.43-85.71 51.43-114.11-23.03-51.43-51.43-51.43z" fill="#e30613"/><ellipse cx="280.99" cy="136.81" fill="#fff" rx="18.52" ry="18.52" transform="matrix(.2298 -.9732 .9732 .2298 83.2804 378.8492)"/></svg>