<svg enable-background="new 0 0 1412.04 499.11" viewBox="0 0 1412.04 499.11" xmlns="http://www.w3.org/2000/svg"><path d="m470.65 499.11h-441.42c-16.14 0-29.23-13.09-29.23-29.23v-440.65c0-16.14 13.09-29.23 29.23-29.23h441.42c16.14 0 29.23 13.09 29.23 29.23v440.65c0 16.14-13.09 29.23-29.23 29.23z" fill="#a07746"/><path d="m460 473.98h-420.36c-8.17 0-14.82-6.65-14.82-14.82v-419.25c0-8.18 6.65-14.83 14.82-14.83h420.36c8.18 0 14.83 6.65 14.83 14.83v419.24c0 8.18-6.65 14.83-14.83 14.83zm-420.36-443.06c-4.96 0-8.99 4.03-8.99 8.99v419.24c0 4.96 4.03 8.99 8.99 8.99h420.36c4.96 0 8.99-4.03 8.99-8.99v-419.24c0-4.96-4.03-8.99-8.99-8.99z" fill="#fff"/><g fill="#e98b24"><path d="m595.82 110.98c0-11.28 3.93-20.85 11.8-28.71 7.86-7.86 17.34-11.79 28.44-11.79 11.28 0 20.85 3.93 28.71 11.79s11.8 17.44 11.8 28.71v197.91h-29.41v-197.91c0-3.14-1.11-5.78-3.33-7.91-2.22-2.12-4.81-3.19-7.77-3.19s-5.51 1.11-7.63 3.33c-2.13 2.22-3.19 4.81-3.19 7.77v277.92c0 2.96 1.06 5.55 3.19 7.77 2.12 2.22 4.67 3.33 7.63 3.33s5.55-1.11 7.77-3.33 3.33-4.81 3.33-7.77v-50.8h29.41v50.79c0 11.28-3.93 20.86-11.8 28.71-7.86 7.86-17.43 11.79-28.71 11.79-11.1 0-20.58-3.93-28.44-11.79s-11.8-17.43-11.8-28.71z"/><path d="m723.73 70.41h40.51c11.1 0 20.58 3.93 28.44 11.79s11.79 17.44 11.79 28.71v245.57c0 9.8-3.15 18.4-9.43 25.8 6.29 7.21 9.43 15.73 9.43 25.53v21.34h-29.41v-21.34c0-2.95-1.02-5.5-3.05-7.63-2.04-2.12-4.63-3.19-7.77-3.19h-11.1v32.16h-29.41zm29.41 297.18h11.1c2.96 0 5.51-1.07 7.63-3.2 2.13-2.12 3.2-4.76 3.2-7.9v-245.57c0-3.14-1.07-5.78-3.2-7.91-2.12-2.12-4.67-3.19-7.63-3.19h-11.1z"/><path d="m881.05 429.16h-29.41c1.85-36.99 9.07-156.57 21.64-358.75h39.95c.18 1.48 1.43 22.01 3.75 61.59 2.31 39.59 5.27 89.16 8.88 148.72 3.6 59.56 6.61 109.04 9.02 148.44h-29.41l-1.94-32.46h-20.81zm12.2-222.8-8.04 160.93h16.09z"/><path d="m984.26 429.16c-.19-1.85-1.44-22.1-3.75-60.76-2.32-38.66-5.32-88.74-9.02-150.24s-6.66-110.75-8.88-147.74h29.41l12.21 222.8c7.77-144.46 11.75-218.73 11.93-222.8h29.69c-1.3 28.49-3.75 71.63-7.36 129.43-3.6 57.81-6.84 109.78-9.71 155.93s-4.4 70.61-4.58 73.39h-39.94z"/><path d="m1093.02 70.41h67.3v29.41h-37.88v209h37.73v29.41h-37.73v61.52h37.54v29.41h-66.95v-358.75z"/><path d="m1254.44 70.41h29.41v358.75h-29.41z"/><path d="m1331.02 429.16v-358.75h29.41l22.19 204.21v-204.21h29.41v358.75h-29.41l-22.19-198.1v198.1z"/></g><path d="m346.18 363.09c.01-.18.03-.35.03-.53v-10.3c0-.9-.1-1.78-.29-2.63h7.88v-57.88c0-8.58-6.98-15.57-15.57-15.57h-177.68c-8.58 0-15.56 6.98-15.56 15.57v57.88h7.43c-.19.85-.29 1.73-.29 2.63v10.3c0 .11.01.22.02.34-5.49 1.23-9.62 6.13-9.62 11.99v14.07c0 4.61 2.56 8.64 6.33 10.74v19.05c0 8.48 6.9 15.38 15.38 15.38h170.31c8.48 0 15.38-6.9 15.38-15.38v-19.81c3.11-2.23 5.14-5.87 5.14-9.98v-14.07c0-5.59-3.76-10.32-8.89-11.8z" fill="#fff"/><path d="m159.96 402.36v16.4c0 2.36 1.92 4.28 4.28 4.28h170.31c2.36 0 4.28-1.92 4.28-4.28v-16.4z" fill="#e98b24"/><path d="m153.63 374.89v14.08c0 .66.54 1.2 1.2 1.2h187.95c.66 0 1.2-.54 1.2-1.2v-14.08c0-.66-.54-1.2-1.2-1.2h-187.95c-.66.01-1.2.54-1.2 1.2z" fill="#432918"/><path d="m163.23 352.26v10.3c0 .66.54 1.2 1.2 1.2h169.49c.66 0 1.2-.54 1.2-1.2v-10.3c0-.66-.54-1.2-1.2-1.2h-169.49c-.66.01-1.2.54-1.2 1.2z" fill="#e30613"/><path d="m342.7 338.54v-46.78c0-2.47-2-4.47-4.47-4.47h-177.68c-2.47 0-4.47 2-4.47 4.47v46.78z" fill="#e98b24"/><path d="m235.24 233.41c-11.37-18.94-48.46-82.91-48.46-110.79 0-34.53 28.1-62.63 62.63-62.63s62.63 28.1 62.63 62.63c0 27.87-37.09 91.84-48.46 110.79l-14.18 23.63z" fill="#fff"/><path d="m249.41 76.53c-25.46 0-46.1 20.64-46.1 46.1s46.1 102.28 46.1 102.28 46.1-76.82 46.1-102.28-20.64-46.1-46.1-46.1z" fill="#e30613"/><ellipse cx="249.41" cy="122.62" fill="#fff" rx="16.6" ry="16.6" transform="matrix(.2298 -.9732 .9732 .2298 72.7662 337.1924)"/></svg>